PathFileType	4	(X/Y/Z)	..\data\2014004\dynamic\2014004_C5_01.trc
DataRate	CameraRate	NumFrames	NumMarkers	Units	OrigDataRate	OrigDataStartFrame	OrigNumFrames
100.000000	100.000000	4	52	mm	100.000000	35	143
Frame#	Time	L_IAS			L_IPS			R_IPS			R_IAS			L_FTC			L_FLE			L_FME			L_FAX			L_TTC			L_FAL			L_TAM			L_FCC			L_FM1			L_FM2			L_FM5			R_FTC			R_FLE			R_FME			R_FAX			R_TTC			R_FAL			R_TAM			R_FCC			R_FM1			R_FM2			R_FM5			CV7			TV10			SXS			SJN			L_SIA			L_SRS			L_SAA			L_SAE			L_HLE			L_HME			L_UOA			L_RSP			L_UHE			L_HM2			L_HM5			R_SIA			R_SRS			R_SAA			R_SAE			R_HLE			R_HME			R_UOA			R_RSP			R_UHE			R_HM2			R_HM5			
		X1	Y1	Z1	X2	Y2	Z2	X3	Y3	Z3	X4	Y4	Z4	X5	Y5	Z5	X6	Y6	Z6	X7	Y7	Z7	X8	Y8	Z8	X9	Y9	Z9	X10	Y10	Z10	X11	Y11	Z11	X12	Y12	Z12	X13	Y13	Z13	X14	Y14	Z14	X15	Y15	Z15	X16	Y16	Z16	X17	Y17	Z17	X18	Y18	Z18	X19	Y19	Z19	X20	Y20	Z20	X21	Y21	Z21	X22	Y22	Z22	X23	Y23	Z23	X24	Y24	Z24	X25	Y25	Z25	X26	Y26	Z26	X27	Y27	Z27	X28	Y28	Z28	X29	Y29	Z29	X30	Y30	Z30	X31	Y31	Z31	X32	Y32	Z32	X33	Y33	Z33	X34	Y34	Z34	X35	Y35	Z35	X36	Y36	Z36	X37	Y37	Z37	X38	Y38	Z38	X39	Y39	Z39	X40	Y40	Z40	X41	Y41	Z41	X42	Y42	Z42	X43	Y43	Z43	X44	Y44	Z44	X45	Y45	Z45	X46	Y46	Z46	X47	Y47	Z47	X48	Y48	Z48	X49	Y49	Z49	X50	Y50	Z50	X51	Y51	Z51	X52	Y52	Z52	

36	0.35	369.0061645507813	955.2709960937502	-299.3611145019532	177.0443878173828	990.988220214844	-227.9962310791016	181.6074523925782	994.4632568359377	-135.5381622314453	379.5158996582032	959.8800048828127	-70.61479949951173	288.5919494628907	898.8493652343752	-372.1520690917969	437.5019531250001	506.5573730468751	-350.1842346191407	476.9292602539064	513.3485107421876	-229.0591430664063	417.4944152832032	447.7202148437501	-355.5283508300782	491.9327392578126	423.0430908203126	-300.9277648925782	325.3077087402344	96.1325607299805	-315.3292846679688	369.0556030273438	111.8726348876953	-227.7978210449219	282.5278320312501	67.48837280273439	-250.5407409667969	484.2359619140626	41.91107559204102	-260.2783203125001	470.5520935058595	52.31795120239259	-314.5511169433594	434.5365600585939	35.74114990234376	-353.1871948242188	320.4844360351563	887.3692626953127	-6.090085506439211	230.6150665283204	479.9954833984376	-57.63520431518556	258.2118530273438	479.6494140625001	-180.4215087890625	212.7831268310547	427.5299072265626	-58.12940597534181	278.3237609863282	410.949920654297	-104.5718383789063	148.2232971191407	70.14746093750001	-107.6979141235352	161.5111236572266	97.81092834472659	-202.0310363769532	92.27916717529298	38.11509704589844	-167.2651824951172	297.1653137207032	23.88377571105957	-188.3208618164063	291.7318420410157	39.93233871459962	-131.2268371582032	259.5847473144532	23.59806442260743	-77.5972137451172	248.8463134765626	1472.146484375	-192.277084350586	165.1422119140625	1250.1650390625	-190.5172424316407	411.2431945800782	1198.927978515625	-200.9765014648438	368.9788818359376	1385.8955078125	-191.444564819336	163.2241973876953	1285.711791992188	-308.0211181640626	197.7601318359376	1422.93603515625	-273.0945739746094	240.1927337646485	1429.071411132813	-354.2951049804688	306.6142578125001	1431.627197265625	-382.6781005859376	220.1306152343751	1128.987060546875	-470.1892089843751	185.263900756836	1130.580200195313	-391.9422607421876	173.8077697753907	1121.115966796875	-443.7529296875001	276.8621520996094	862.0466308593752	-433.7957458496095	218.5148620605469	880.691345214844	-484.040985107422	290.9503479003907	780.4785766601565	-443.7532348632814	194.5151672363282	792.1616210937502	-484.665496826172	168.4149780273438	1268.809814453125	-67.47482299804689	199.3976745605469	1410.967895507813	-105.6454086303711	258.1019592285157	1422.49609375	-24.90962982177735	319.4262084960938	1423.862915039063	-9.856576919555666	241.141098022461	1111.714233398438	87.96642303466798	221.2219390869141	1095.773559570313	-0.343798041343689	196.5046691894532	1082.942504882813	53.0351028442383	442.5146789550782	928.4194946289065	42.61483764648438	384.3500061035157	898.2200927734377	84.66761016845705	502.6692199707032	860.3396606445315	52.99586486816408	407.1070861816407	818.3691406250002	71.51535034179689	
37	0.36	385.1203918457032	953.7274169921877	-299.4930114746094	192.8090515136719	989.2089843750002	-228.0471801757813	197.436264038086	992.653259277344	-135.6898040771485	395.2371215820314	957.2390136718752	-70.57009887695314	304.6442565917969	897.6754150390627	-372.5264892578126	455.6679077148439	505.1450500488282	-349.2195129394532	492.4842224121095	512.7703247070314	-227.5732727050782	438.7041931152345	444.8262634277345	-354.8586120605469	513.4196777343751	424.6227416992189	-299.0523071289063	373.3089904785157	87.59317016601564	-316.8439331054688	415.1163330078126	106.275993347168	-228.9739074707032	332.1998901367188	56.01622009277345	-252.3667297363282	535.4799194335939	45.31135559082032	-260.3213195800782	521.5090942382814	54.65305328369142	-314.9353942871094	487.1362915039064	35.43785095214844	-353.8383178710938	334.9333190917969	885.075866699219	-6.122066974639894	235.6086578369141	480.2897949218751	-58.20631790161134	263.4390563964844	479.2851562500001	-180.7977752685547	216.8037567138672	428.106903076172	-58.78598403930665	282.2678527832032	410.2803955078126	-104.7579650878907	148.6649017333985	71.3348846435547	-108.4547958374024	162.4888458251953	98.921501159668	-202.6752166748047	92.80812835693361	39.70010375976563	-168.3317108154297	297.5370788574219	23.99570274353028	-188.2193450927735	292.0476379394532	40.01847839355469	-131.1565399169922	259.5656738281251	23.94124603271485	-77.79346466064455	265.1386718750001	1470.543823242188	-192.9756927490235	181.4135284423828	1248.594482421875	-190.4524383544922	427.4413146972657	1197.207763671875	-201.5512847900391	385.3791809082032	1384.36279296875	-192.3948059082032	178.9306335449219	1283.961547851563	-307.6018676757813	213.9711456298829	1421.180419921875	-273.4620666503907	256.0983276367188	1427.299194335938	-354.7519531250001	322.3760070800782	1429.588134765625	-383.6063537597657	232.7297973632813	1127.284545898438	-468.880340576172	197.9973602294922	1129.9306640625	-390.461639404297	186.2128295898438	1120.759643554688	-442.1207885742189	280.9884948730469	858.6948242187502	-433.1860656738282	223.4922332763672	879.5909423828127	-483.6446838378907	292.3366394042969	776.781921386719	-443.185028076172	196.5567474365235	791.861755371094	-484.5767822265626	185.1305084228516	1267.391845703125	-67.35196685791017	215.8260498046876	1409.490478515625	-106.0474090576172	274.6585998535157	1421.331787109375	-25.47959136962891	336.2761230468751	1422.7353515625	-10.67602443695069	259.3743591308594	1111.000610351563	88.68043518066408	239.8017578125001	1094.089721679688	0.2506937086582184	215.2512817382813	1080.78125	53.98945617675783	467.6431274414064	936.3428344726565	41.83020019531251	411.0684204101564	903.4812011718752	84.08181762695314	530.8544921875001	871.1406250000002	51.95998382568361	437.4197998046876	824.747497558594	70.57537841796876	
38	0.37	401.3911437988282	951.8875122070315	-299.7651672363282	208.597396850586	987.0147094726565	-228.1565399169922	213.2758789062501	990.4364013671877	-135.9346008300782	411.0266418457032	954.3887939453127	-70.55334472656251	320.7618713378907	896.0398559570315	-372.8895874023438	473.013153076172	503.1854858398439	-348.3365783691407	507.0989379882814	511.2992553710939	-226.0615844726563	459.1073303222657	441.736053466797	-354.2454528808594	533.9867553710939	425.8207397460939	-297.3445129394532	421.0805664062501	80.63215637207033	-318.4026794433594	460.7380371093751	102.1369171142578	-230.2078247070313	381.7954101562501	46.24672317504884	-254.2048950195313	585.6204833984376	50.2345657348633	-260.1506347656251	571.6022949218751	58.4712257385254	-315.1518859863282	539.0490722656251	36.69004058837891	-354.3489685058594	349.2927551269532	882.6582641601565	-6.17649030685425	241.1029663085938	480.6011962890626	-58.82030868530275	269.1119995117188	478.9885559082032	-181.2781829833985	221.3358917236329	428.727020263672	-59.48064041137697	286.6851806640626	409.6264648437501	-105.0280914306641	149.1626281738282	72.64694976806642	-109.1360015869141	163.494140625	100.1490554809571	-203.2557067871094	93.27957153320314	41.45628738403321	-169.2584533691407	298.0007629394532	24.13398742675782	-188.1205139160157	292.4621276855469	40.13449096679688	-131.0749053955078	259.6247863769532	24.26877021789551	-77.95818328857423	281.4868469238282	1468.693115234375	-193.7547149658204	197.7247619628907	1246.783081054688	-190.4974517822266	443.7086181640626	1195.189331054688	-202.197250366211	401.8721008300782	1382.566162109375	-193.4470214843751	194.6404418945313	1281.891479492188	-307.2080688476563	230.2029571533204	1419.180053710938	-273.8989868164063	272.0057067871094	1425.201904296875	-355.2991943359376	338.1230163574219	1427.219116210938	-384.6429138183595	245.4734191894532	1125.263549804688	-467.6238708496095	210.9425506591797	1128.87353515625	-388.9832763671876	198.8122711181641	1120.012451171875	-440.5034179687501	285.6446838378907	855.3558349609377	-432.6028747558595	229.0329742431641	878.369812011719	-483.2698669433595	294.3186035156251	773.181823730469	-442.5883178710939	199.3324432373047	791.503112792969	-484.5170288085939	201.9757385253907	1265.700561523438	-67.34610748291017	232.3029327392579	1407.799682617188	-106.5172882080078	291.2853088378907	1419.939453125	-26.11414146423341	353.2331848144532	1421.348388671875	-11.57167720794678	277.5403747558594	1110.120727539063	89.37448120117189	258.2389526367188	1092.2158203125	0.8639094233512881	233.9602508544922	1078.486206054688	54.97743225097658	492.0280761718751	944.0266723632815	41.05333709716798	437.1405029296876	908.7275390625002	83.58648681640626	558.0769653320314	881.7708740234377	50.97288131713869	466.921600341797	831.192565917969	69.79341888427736	
39	0.38	417.843231201172	949.802917480469	-300.1543884277344	224.4385528564454	984.4739990234377	-228.3645019531251	229.1507568359376	987.8765869140627	-136.310302734375	426.8887023925782	951.4122314453127	-70.54813385009767	336.9980468750001	893.9915771484377	-373.2389526367188	489.6650390625001	500.7889709472657	-347.5339050292969	521.0023193359376	509.0777893066407	-224.5544433593751	478.788543701172	438.5627746582032	-353.6833801269532	553.7563476562501	426.6837768554689	-295.8295593261719	468.0608825683595	75.2828826904297	-319.9336242675782	505.4177246093751	99.44846343994143	-231.434799194336	430.6981506347657	38.23881530761719	-255.9856567382813	634.1613159179689	56.50196456909181	-259.7554931640626	620.3168945312501	63.6084671020508	-315.1721191406251	589.7044677734376	39.3690528869629	-354.6679077148438	363.5994873046876	880.190856933594	-6.261537551879885	247.1776733398438	480.9352416992189	-59.45224380493165	275.3291320800782	478.7679748535157	-181.8403778076172	226.4624633789063	429.3922424316407	-60.18442535400392	291.6558227539063	408.9970703125001	-105.368408203125	149.7119750976563	74.09362030029298	-109.7045288085938	164.5276184082032	101.5096282958985	-203.7385864257813	93.67222595214845	43.41719818115235	-170.0018310546875	298.5534057617188	24.27402305603028	-188.0292205810547	292.9762268066407	40.25732421875001	-130.979248046875	259.7570800781251	24.54088401794434	-78.09043121337892	297.8855590820313	1466.634033203125	-194.6245574951172	214.0791320800782	1244.7685546875	-190.6670989990235	460.0482788085939	1192.92431640625	-202.9131774902344	418.448699951172	1380.542602539063	-194.5960693359376	210.3634033203126	1279.543579101563	-306.8589782714844	246.4561767578126	1416.970703125	-274.4201354980469	287.9252319335938	1422.819946289063	-355.9465332031251	353.8617553710938	1424.567138671875	-385.7933044433595	258.3634643554688	1122.966552734375	-466.4291076660157	224.1250457763672	1127.443481445313	-387.5194396972657	211.620101928711	1118.902709960938	-438.9083557128907	290.9037475585938	852.0498657226565	-432.0431518554689	235.1892242431641	877.031921386719	-482.9133911132814	296.9914855957032	769.6838989257815	-441.9642944335939	202.9172363281251	791.074157714844	-484.4924316406251	218.923812866211	1263.784545898438	-67.47391510009767	248.8197021484376	1405.933715820313	-107.0744171142578	307.9675598144532	1418.361206054688	-26.82912826538087	370.2608947753907	1419.757568359375	-12.55316066741944	295.6491088867188	1109.107421875	90.04524993896486	276.5282897949219	1090.190551757813	1.498043298721314	252.625717163086	1076.103271484375	55.99594497680665	515.6425781250001	951.3531494140627	40.2878646850586	462.5111694335939	913.8668212890627	83.18948364257814	584.2949218750001	892.0718994140627	50.04956436157228	495.527557373047	837.577087402344	69.19103240966798	
